<svg width="473" height="233" viewBox="0 0 473 233" fill="none" xmlns="http://www.w3.org/2000/svg">
<path d="M381.5 0.5L257.5 107C269.822 120.35 273.716 132.595 276.5 145L383 232H472.5L333 114L463.5 0.5H381.5Z" fill="url(#paint0_linear_21_8)"/>
<path d="M57.5 182.5L0 233H200.5C297.5 233 279.5 90 200.5 90H94.5C75 90 73.5 48.5 94.5 48.5H229.5L287 0C287 0 152 0.000488281 79 0C6 -0.000488279 0 138 79 138C158 138 166.042 141 197 141C227.958 141 223 182.5 197 182.5H57.5Z" fill="url(#paint1_linear_21_8)"/>
<defs>
<linearGradient id="paint0_linear_21_8" x1="365" y1="0.5" x2="365" y2="232" gradientUnits="userSpaceOnUse">
<stop stop-color="#804DEE"/>
<stop offset="1" stop-color="#A082E1"/>
</linearGradient>
<linearGradient id="paint1_linear_21_8" x1="143.5" y1="0" x2="143.5" y2="233" gradientUnits="userSpaceOnUse">
<stop stop-color="#804DEE"/>
<stop offset="1" stop-color="#A082E1"/>
</linearGradient>
</defs>
</svg>
